<?xml version="1.0" encoding="UTF-8" standalone="no"?><!-- Generator: Gravit.io --><svg xmlns="http://www.w3.org/2000/svg" xmlns:xlink="http://www.w3.org/1999/xlink" style="isolation:isolate" viewBox="0 0 628.938 85" width="628.938pt" height="85pt"><defs><clipPath id="_clipPath_ISL201VwrkaPBWOis9AkXFZz0gSYFVza"><rect width="628.938" height="85"/></clipPath></defs><g clip-path="url(#_clipPath_ISL201VwrkaPBWOis9AkXFZz0gSYFVza)"><rect width="628.938" height="85" style="fill:rgb(68,71,90)" fill-opacity="0"/><g style="isolation:isolate"><path d=" M 8.747 51.63 C 8.747 49.885 9.443 48.219 10.671 46.991 C 11.9 45.755 13.574 45.066 15.311 45.066 C 17.055 45.066 18.722 45.755 19.95 46.991 C 21.186 48.219 21.875 49.885 21.875 51.63 C 21.875 53.367 21.186 55.041 19.95 56.269 C 18.722 57.498 17.055 58.194 15.311 58.194 C 13.574 58.194 11.9 57.498 10.671 56.269 C 9.443 55.041 8.747 53.367 8.747 51.63 L 8.747 51.63 L 8.747 51.63 Z  M 7.002 51.63 C 7.002 49.424 7.878 47.312 9.435 45.747 C 10.992 44.19 13.112 43.314 15.311 43.314 C 17.517 43.314 19.629 44.19 21.194 45.747 C 22.751 47.312 23.627 49.424 23.627 51.63 C 23.627 53.829 22.751 55.949 21.194 57.506 C 19.629 59.062 17.517 59.939 15.311 59.939 C 13.112 59.939 10.992 59.062 9.435 57.506 C 7.878 55.949 7.002 53.829 7.002 51.63 L 7.002 51.63 L 7.002 51.63 Z  M 4.375 36.753 L 62.125 36.753 C 64.54 36.753 66.5 38.713 66.5 41.128 L 66.5 62.128 C 66.5 64.542 64.54 66.503 62.125 66.503 L 4.375 66.503 C 1.96 66.503 0 64.542 0 62.128 L 0 41.128 C 0 38.713 1.96 36.753 4.375 36.753 L 4.375 36.753 Z  M 11.375 51.628 C 11.375 49.454 13.139 47.69 15.313 47.69 C 17.486 47.69 19.25 49.454 19.25 51.628 C 19.25 53.801 17.486 55.565 15.313 55.565 C 13.139 55.565 11.375 53.801 11.375 51.628 Z " fill-rule="evenodd" fill="rgb(98,114,164)"/><path d=" M 8.747 14.875 C 8.747 13.138 9.443 11.464 10.671 10.236 C 11.9 9.008 13.574 8.319 15.311 8.319 C 17.055 8.319 18.722 9.008 19.95 10.236 C 21.186 11.464 21.875 13.138 21.875 14.875 C 21.875 16.62 21.186 18.286 19.95 19.515 C 18.722 20.751 17.055 21.439 15.311 21.439 C 13.574 21.439 11.9 20.751 10.671 19.515 C 9.443 18.286 8.747 16.62 8.747 14.875 L 8.747 14.875 L 8.747 14.875 Z  M 7.002 14.875 C 7.002 12.677 7.878 10.557 9.435 9 C 10.992 7.443 13.112 6.567 15.311 6.567 C 17.517 6.567 19.629 7.443 21.194 9 C 22.751 10.557 23.627 12.677 23.627 14.875 C 23.627 17.081 22.751 19.194 21.194 20.758 C 19.629 22.315 17.517 23.192 15.311 23.192 C 13.112 23.192 10.992 22.315 9.435 20.758 C 7.878 19.194 7.002 17.081 7.002 14.875 L 7.002 14.875 L 7.002 14.875 Z  M 4.375 0.003 L 62.125 0.003 C 64.54 0.003 66.5 1.963 66.5 4.378 L 66.5 25.378 C 66.5 27.792 64.54 29.753 62.125 29.753 L 4.375 29.753 C 1.96 29.753 0 27.792 0 25.378 L 0 4.378 C 0 1.963 1.96 0.003 4.375 0.003 L 4.375 0.003 Z  M 11.375 14.878 C 11.375 12.704 13.139 10.94 15.313 10.94 C 17.486 10.94 19.25 12.704 19.25 14.878 C 19.25 17.051 17.486 18.815 15.313 18.815 C 13.139 18.815 11.375 17.051 11.375 14.878 Z " fill-rule="evenodd" fill="rgb(98,114,164)"/></g><g style="isolation:isolate"><path d=" M 271.152 0.894 L 288.67 0.894 L 305.384 48.086 L 322.009 0.894 L 339.616 0.894 L 339.616 65.962 L 326.165 65.962 L 326.165 48.176 L 327.505 17.474 L 309.942 65.962 L 300.736 65.962 L 283.218 17.518 L 284.559 48.176 L 284.559 65.962 L 271.152 65.962 L 271.152 0.894 Z  M 391.546 65.962 L 378.497 65.962 L 378.497 65.962 Q 377.603 64.219 377.201 61.627 L 377.201 61.627 L 377.201 61.627 Q 372.508 66.856 365 66.856 L 365 66.856 L 365 66.856 Q 357.895 66.856 353.224 62.744 L 353.224 62.744 L 353.224 62.744 Q 348.554 58.633 348.554 52.376 L 348.554 52.376 L 348.554 52.376 Q 348.554 44.69 354.252 40.578 L 354.252 40.578 L 354.252 40.578 Q 359.95 36.467 370.72 36.422 L 370.72 36.422 L 376.664 36.422 L 376.664 33.651 L 376.664 33.651 Q 376.664 30.3 374.944 28.289 L 374.944 28.289 L 374.944 28.289 Q 373.223 26.278 369.514 26.278 L 369.514 26.278 L 369.514 26.278 Q 366.252 26.278 364.397 27.842 L 364.397 27.842 L 364.397 27.842 Q 362.542 29.406 362.542 32.132 L 362.542 32.132 L 349.627 32.132 L 349.627 32.132 Q 349.627 27.931 352.219 24.356 L 352.219 24.356 L 352.219 24.356 Q 354.811 20.781 359.548 18.747 L 359.548 18.747 L 359.548 18.747 Q 364.285 16.714 370.184 16.714 L 370.184 16.714 L 370.184 16.714 Q 379.122 16.714 384.373 21.205 L 384.373 21.205 L 384.373 21.205 Q 389.624 25.697 389.624 33.83 L 389.624 33.83 L 389.624 54.79 L 389.624 54.79 Q 389.669 61.672 391.546 65.202 L 391.546 65.202 L 391.546 65.962 Z  M 367.816 56.979 L 367.816 56.979 L 367.816 56.979 Q 370.676 56.979 373.089 55.706 L 373.089 55.706 L 373.089 55.706 Q 375.502 54.432 376.664 52.287 L 376.664 52.287 L 376.664 43.975 L 371.838 43.975 L 371.838 43.975 Q 362.14 43.975 361.514 50.678 L 361.514 50.678 L 361.47 51.438 L 361.47 51.438 Q 361.47 53.851 363.168 55.415 L 363.168 55.415 L 363.168 55.415 Q 364.866 56.979 367.816 56.979 Z  M 399.277 17.608 L 411.433 17.608 L 411.835 23.194 L 411.835 23.194 Q 417.019 16.714 425.734 16.714 L 425.734 16.714 L 425.734 16.714 Q 433.42 16.714 437.174 21.228 L 437.174 21.228 L 437.174 21.228 Q 440.928 25.741 441.018 34.724 L 441.018 34.724 L 441.018 65.962 L 428.102 65.962 L 428.102 35.037 L 428.102 35.037 Q 428.102 30.925 426.315 29.071 L 426.315 29.071 L 426.315 29.071 Q 424.527 27.216 420.371 27.216 L 420.371 27.216 L 420.371 27.216 Q 414.919 27.216 412.193 31.864 L 412.193 31.864 L 412.193 65.962 L 399.277 65.962 L 399.277 17.608 Z  M 491.875 65.962 L 478.825 65.962 L 478.825 65.962 Q 477.931 64.219 477.529 61.627 L 477.529 61.627 L 477.529 61.627 Q 472.837 66.856 465.329 66.856 L 465.329 66.856 L 465.329 66.856 Q 458.223 66.856 453.553 62.744 L 453.553 62.744 L 453.553 62.744 Q 448.883 58.633 448.883 52.376 L 448.883 52.376 L 448.883 52.376 Q 448.883 44.69 454.581 40.578 L 454.581 40.578 L 454.581 40.578 Q 460.279 36.467 471.049 36.422 L 471.049 36.422 L 476.993 36.422 L 476.993 33.651 L 476.993 33.651 Q 476.993 30.3 475.272 28.289 L 475.272 28.289 L 475.272 28.289 Q 473.552 26.278 469.842 26.278 L 469.842 26.278 L 469.842 26.278 Q 466.58 26.278 464.725 27.842 L 464.725 27.842 L 464.725 27.842 Q 462.871 29.406 462.871 32.132 L 462.871 32.132 L 449.955 32.132 L 449.955 32.132 Q 449.955 27.931 452.547 24.356 L 452.547 24.356 L 452.547 24.356 Q 455.139 20.781 459.877 18.747 L 459.877 18.747 L 459.877 18.747 Q 464.614 16.714 470.513 16.714 L 470.513 16.714 L 470.513 16.714 Q 479.451 16.714 484.702 21.205 L 484.702 21.205 L 484.702 21.205 Q 489.953 25.697 489.953 33.83 L 489.953 33.83 L 489.953 54.79 L 489.953 54.79 Q 489.998 61.672 491.875 65.202 L 491.875 65.202 L 491.875 65.962 Z  M 468.144 56.979 L 468.144 56.979 L 468.144 56.979 Q 471.004 56.979 473.418 55.706 L 473.418 55.706 L 473.418 55.706 Q 475.831 54.432 476.993 52.287 L 476.993 52.287 L 476.993 43.975 L 472.166 43.975 L 472.166 43.975 Q 462.469 43.975 461.843 50.678 L 461.843 50.678 L 461.798 51.438 L 461.798 51.438 Q 461.798 53.851 463.496 55.415 L 463.496 55.415 L 463.496 55.415 Q 465.195 56.979 468.144 56.979 Z  M 497.997 41.964 L 497.997 41.427 L 497.997 41.427 Q 497.997 30.3 503.293 23.507 L 503.293 23.507 L 503.293 23.507 Q 508.589 16.714 517.571 16.714 L 517.571 16.714 L 517.571 16.714 Q 525.526 16.714 529.95 22.166 L 529.95 22.166 L 530.487 17.608 L 542.195 17.608 L 542.195 64.353 L 542.195 64.353 Q 542.195 70.699 539.313 75.392 L 539.313 75.392 L 539.313 75.392 Q 536.43 80.084 531.202 82.542 L 531.202 82.542 L 531.202 82.542 Q 525.973 85 518.957 85 L 518.957 85 L 518.957 85 Q 513.638 85 508.589 82.877 L 508.589 82.877 L 508.589 82.877 Q 503.539 80.754 500.947 77.403 L 500.947 77.403 L 506.667 69.537 L 506.667 69.537 Q 511.493 74.945 518.376 74.945 L 518.376 74.945 L 518.376 74.945 Q 523.515 74.945 526.375 72.196 L 526.375 72.196 L 526.375 72.196 Q 529.235 69.448 529.235 64.398 L 529.235 64.398 L 529.235 61.806 L 529.235 61.806 Q 524.766 66.856 517.482 66.856 L 517.482 66.856 L 517.482 66.856 Q 508.767 66.856 503.382 60.041 L 503.382 60.041 L 503.382 60.041 Q 497.997 53.226 497.997 41.964 L 497.997 41.964 Z  M 510.912 42.366 L 510.912 42.366 L 510.912 42.366 Q 510.912 48.935 513.549 52.667 L 513.549 52.667 L 513.549 52.667 Q 516.186 56.399 520.789 56.399 L 520.789 56.399 L 520.789 56.399 Q 526.688 56.399 529.235 51.974 L 529.235 51.974 L 529.235 31.64 L 529.235 31.64 Q 526.643 27.216 520.878 27.216 L 520.878 27.216 L 520.878 27.216 Q 516.23 27.216 513.571 31.015 L 513.571 31.015 L 513.571 31.015 Q 510.912 34.813 510.912 42.366 Z  M 574.372 66.856 L 574.372 66.856 L 574.372 66.856 Q 563.736 66.856 557.055 60.331 L 557.055 60.331 L 557.055 60.331 Q 550.373 53.807 550.373 42.947 L 550.373 42.947 L 550.373 41.696 L 550.373 41.696 Q 550.373 34.411 553.189 28.669 L 553.189 28.669 L 553.189 28.669 Q 556.004 22.926 561.166 19.82 L 561.166 19.82 L 561.166 19.82 Q 566.328 16.714 572.942 16.714 L 572.942 16.714 L 572.942 16.714 Q 582.863 16.714 588.561 22.971 L 588.561 22.971 L 588.561 22.971 Q 594.259 29.227 594.259 40.712 L 594.259 40.712 L 594.259 45.986 L 563.468 45.986 L 563.468 45.986 Q 564.093 50.723 567.244 53.583 L 567.244 53.583 L 567.244 53.583 Q 570.394 56.443 575.221 56.443 L 575.221 56.443 L 575.221 56.443 Q 582.684 56.443 586.885 51.036 L 586.885 51.036 L 593.231 58.141 L 593.231 58.141 Q 590.326 62.253 585.366 64.554 L 585.366 64.554 L 585.366 64.554 Q 580.405 66.856 574.372 66.856 Z  M 572.897 27.171 L 572.897 27.171 L 572.897 27.171 Q 569.054 27.171 566.663 29.763 L 566.663 29.763 L 566.663 29.763 Q 564.272 32.355 563.602 37.182 L 563.602 37.182 L 581.567 37.182 L 581.567 36.154 L 581.567 36.154 Q 581.478 31.864 579.243 29.518 L 579.243 29.518 L 579.243 29.518 Q 577.009 27.171 572.897 27.171 Z  M 628.938 17.295 L 628.759 29.719 L 628.759 29.719 Q 626.123 29.361 624.112 29.361 L 624.112 29.361 L 624.112 29.361 Q 616.783 29.361 614.503 34.322 L 614.503 34.322 L 614.503 65.962 L 601.588 65.962 L 601.588 17.608 L 613.788 17.608 L 614.146 23.373 L 614.146 23.373 Q 618.034 16.714 624.916 16.714 L 624.916 16.714 L 624.916 16.714 Q 627.061 16.714 628.938 17.295 L 628.938 17.295 Z  M 135.473 0.894 L 135.473 7.955 L 114.559 7.955 L 114.559 65.962 L 106.023 65.962 L 106.023 7.955 L 85.153 7.955 L 85.153 0.894 L 135.473 0.894 Z  M 163.583 36.958 L 163.583 36.958 L 163.583 36.958 Q 152.545 33.785 147.517 29.16 L 147.517 29.16 L 147.517 29.16 Q 142.49 24.535 142.49 17.742 L 142.49 17.742 L 142.49 17.742 Q 142.49 10.055 148.635 5.028 L 148.635 5.028 L 148.635 5.028 Q 154.779 0 164.611 0 L 164.611 0 L 164.611 0 Q 171.315 0 176.566 2.592 L 176.566 2.592 L 176.566 2.592 Q 181.817 5.184 184.699 9.742 L 184.699 9.742 L 184.699 9.742 Q 187.582 14.301 187.582 19.708 L 187.582 19.708 L 178.957 19.708 L 178.957 19.708 Q 178.957 13.809 175.203 10.435 L 175.203 10.435 L 175.203 10.435 Q 171.449 7.061 164.611 7.061 L 164.611 7.061 L 164.611 7.061 Q 158.265 7.061 154.712 9.854 L 154.712 9.854 L 154.712 9.854 Q 151.159 12.647 151.159 17.608 L 151.159 17.608 L 151.159 17.608 Q 151.159 21.585 154.534 24.334 L 154.534 24.334 L 154.534 24.334 Q 157.908 27.082 166.019 29.361 L 166.019 29.361 L 166.019 29.361 Q 174.13 31.64 178.711 34.389 L 178.711 34.389 L 178.711 34.389 Q 183.291 37.137 185.504 40.802 L 185.504 40.802 L 185.504 40.802 Q 187.716 44.466 187.716 49.427 L 187.716 49.427 L 187.716 49.427 Q 187.716 57.337 181.549 62.096 L 181.549 62.096 L 181.549 62.096 Q 175.381 66.856 165.058 66.856 L 165.058 66.856 L 165.058 66.856 Q 158.355 66.856 152.545 64.286 L 152.545 64.286 L 152.545 64.286 Q 146.735 61.717 143.585 57.248 L 143.585 57.248 L 143.585 57.248 Q 140.434 52.779 140.434 47.103 L 140.434 47.103 L 149.059 47.103 L 149.059 47.103 Q 149.059 53.002 153.416 56.421 L 153.416 56.421 L 153.416 56.421 Q 157.774 59.84 165.058 59.84 L 165.058 59.84 L 165.058 59.84 Q 171.851 59.84 175.471 57.069 L 175.471 57.069 L 175.471 57.069 Q 179.091 54.298 179.091 49.516 L 179.091 49.516 L 179.091 49.516 Q 179.091 44.734 175.739 42.12 L 175.739 42.12 L 175.739 42.12 Q 172.387 39.506 163.583 36.958 Z  M 208.586 36.154 L 208.586 29.406 L 214.798 29.406 L 214.798 29.406 Q 220.652 29.317 224.004 26.322 L 224.004 26.322 L 224.004 26.322 Q 227.356 23.328 227.356 18.233 L 227.356 18.233 L 227.356 18.233 Q 227.356 6.793 215.96 6.793 L 215.96 6.793 L 215.96 6.793 Q 210.597 6.793 207.402 9.854 L 207.402 9.854 L 207.402 9.854 Q 204.206 12.915 204.206 17.965 L 204.206 17.965 L 195.939 17.965 L 195.939 17.965 Q 195.939 10.234 201.592 5.117 L 201.592 5.117 L 201.592 5.117 Q 207.245 0 215.96 0 L 215.96 0 L 215.96 0 Q 225.166 0 230.395 4.871 L 230.395 4.871 L 230.395 4.871 Q 235.623 9.742 235.623 18.412 L 235.623 18.412 L 235.623 18.412 Q 235.623 22.658 232.875 26.635 L 232.875 26.635 L 232.875 26.635 Q 230.126 30.613 225.389 32.579 L 225.389 32.579 L 225.389 32.579 Q 230.752 34.277 233.679 38.21 L 233.679 38.21 L 233.679 38.21 Q 236.606 42.142 236.606 47.818 L 236.606 47.818 L 236.606 47.818 Q 236.606 56.577 230.886 61.717 L 230.886 61.717 L 230.886 61.717 Q 225.166 66.856 216.004 66.856 L 216.004 66.856 L 216.004 66.856 Q 206.843 66.856 201.1 61.895 L 201.1 61.895 L 201.1 61.895 Q 195.358 56.935 195.358 48.801 L 195.358 48.801 L 203.67 48.801 L 203.67 48.801 Q 203.67 53.941 207.022 57.024 L 207.022 57.024 L 207.022 57.024 Q 210.373 60.108 216.004 60.108 L 216.004 60.108 L 216.004 60.108 Q 221.993 60.108 225.166 56.979 L 225.166 56.979 L 225.166 56.979 Q 228.339 53.851 228.339 47.997 L 228.339 47.997 L 228.339 47.997 Q 228.339 42.321 224.853 39.282 L 224.853 39.282 L 224.853 39.282 Q 221.367 36.243 214.798 36.154 L 214.798 36.154 L 208.586 36.154 Z " fill="rgb(98,114,164)"/></g></g></svg>