<?xml version="1.0" encoding="UTF-8" standalone="no"?><!-- Generator: Gravit.io --><svg xmlns="http://www.w3.org/2000/svg" xmlns:xlink="http://www.w3.org/1999/xlink" style="isolation:isolate" viewBox="0 0 380 380" width="380pt" height="380pt"><defs><clipPath id="_clipPath_i9GunRZRBaromIl4HbnC7uEK5DJgfEhh"><rect width="380" height="380"/></clipPath></defs><g clip-path="url(#_clipPath_i9GunRZRBaromIl4HbnC7uEK5DJgfEhh)"><rect width="380" height="380" style="fill:rgb(68,71,90)" fill-opacity="0"/><g style="isolation:isolate"><path d=" M 75.789 275.658 C 75.789 267.549 79.012 259.758 84.747 254.023 C 90.482 248.288 98.273 245.066 106.382 245.066 C 114.491 245.066 122.281 248.288 128.016 254.023 C 133.751 259.758 136.974 267.549 136.974 275.658 C 136.974 283.767 133.751 291.558 128.016 297.293 C 122.281 303.028 114.491 306.25 106.382 306.25 C 98.273 306.25 90.482 303.028 84.747 297.293 C 79.012 291.558 75.789 283.767 75.789 275.658 L 75.789 275.658 L 75.789 275.658 Z  M 67.632 275.658 C 67.632 265.387 71.719 255.524 78.979 248.256 C 86.248 240.995 96.111 236.908 106.382 236.908 C 116.652 236.908 126.515 240.995 133.784 248.256 C 141.044 255.524 145.132 265.387 145.132 275.658 C 145.132 285.929 141.044 295.792 133.784 303.06 C 126.515 310.321 116.652 314.408 106.382 314.408 C 96.111 314.408 86.248 310.321 78.979 303.06 C 71.719 295.792 67.632 285.929 67.632 275.658 L 67.632 275.658 L 67.632 275.658 Z  M 55.395 206.316 L 324.605 206.316 C 335.861 206.316 345 215.454 345 226.711 L 345 324.605 C 345 335.861 335.861 345 324.605 345 L 55.395 345 C 44.139 345 35 335.861 35 324.605 L 35 226.711 C 35 215.454 44.139 206.316 55.395 206.316 L 55.395 206.316 Z  M 88.026 275.658 C 88.026 265.527 96.251 257.303 106.382 257.303 C 116.512 257.303 124.737 265.527 124.737 275.658 C 124.737 285.788 116.512 294.013 106.382 294.013 C 96.251 294.013 88.026 285.788 88.026 275.658 Z  M 75.789 104.342 C 75.789 96.233 79.012 88.442 84.747 82.707 C 90.482 76.972 98.273 73.75 106.382 73.75 C 114.491 73.75 122.281 76.972 128.016 82.707 C 133.751 88.442 136.974 96.233 136.974 104.342 C 136.974 112.451 133.751 120.242 128.016 125.977 C 122.281 131.712 114.491 134.934 106.382 134.934 C 98.273 134.934 90.482 131.712 84.747 125.977 C 79.012 120.242 75.789 112.451 75.789 104.342 L 75.789 104.342 L 75.789 104.342 Z  M 67.632 104.342 C 67.632 94.071 71.719 84.208 78.979 76.94 C 86.248 69.679 96.111 65.592 106.382 65.592 C 116.652 65.592 126.515 69.679 133.784 76.94 C 141.044 84.208 145.132 94.071 145.132 104.342 C 145.132 114.613 141.044 124.476 133.784 131.744 C 126.515 139.005 116.652 143.092 106.382 143.092 C 96.111 143.092 86.248 139.005 78.979 131.744 C 71.719 124.476 67.632 114.613 67.632 104.342 L 67.632 104.342 L 67.632 104.342 Z  M 55.395 35 L 324.605 35 C 335.861 35 345 44.139 345 55.395 L 345 153.289 C 345 164.546 335.861 173.684 324.605 173.684 L 55.395 173.684 C 44.139 173.684 35 164.546 35 153.289 L 35 55.395 C 35 44.139 44.139 35 55.395 35 L 55.395 35 Z  M 88.026 104.342 C 88.026 94.212 96.251 85.987 106.382 85.987 C 116.512 85.987 124.737 94.212 124.737 104.342 C 124.737 114.473 116.512 122.697 106.382 122.697 C 96.251 122.697 88.026 114.473 88.026 104.342 Z " fill-rule="evenodd" fill="rgb(98,114,164)"/></g></g></svg>