<?xml version="1.0" encoding="UTF-8" standalone="no"?><!-- Generator: Gravit.io --><svg xmlns="http://www.w3.org/2000/svg" xmlns:xlink="http://www.w3.org/1999/xlink" style="isolation:isolate" viewBox="0 0 380 380" width="380pt" height="380pt"><defs><clipPath id="_clipPath_ugOLv8vbpf0dXR6342z0aCZE8kr7U0zm"><rect width="380" height="380"/></clipPath></defs><g clip-path="url(#_clipPath_ugOLv8vbpf0dXR6342z0aCZE8kr7U0zm)"><g style="isolation:isolate"><path d=" M 50 295 C 50 285.06 53.95 275.51 60.98 268.48 C 68.01 261.45 77.56 257.5 87.5 257.5 C 97.44 257.5 106.99 261.45 114.02 268.48 C 121.05 275.51 125 285.06 125 295 C 125 304.94 121.05 314.49 114.02 321.52 C 106.99 328.55 97.44 332.5 87.5 332.5 C 77.56 332.5 68.01 328.55 60.98 321.52 C 53.95 314.49 50 304.94 50 295 L 50 295 L 50 295 Z  M 40 295 C 40 282.41 45.01 270.32 53.91 261.41 C 62.82 252.51 74.91 247.5 87.5 247.5 C 100.09 247.5 112.18 252.51 121.09 261.41 C 129.99 270.32 135 282.41 135 295 C 135 307.59 129.99 319.68 121.09 328.59 C 112.18 337.49 100.09 342.5 87.5 342.5 C 74.91 342.5 62.82 337.49 53.91 328.59 C 45.01 319.68 40 307.59 40 295 L 40 295 L 40 295 Z  M 25 210 L 355 210 C 368.798 210 380 221.202 380 235 L 380 355 C 380 368.798 368.798 380 355 380 L 25 380 C 11.202 380 0 368.798 0 355 L 0 235 C 0 221.202 11.202 210 25 210 L 25 210 Z  M 65 295 C 65 282.582 75.082 272.5 87.5 272.5 C 99.918 272.5 110 282.582 110 295 C 110 307.418 99.918 317.5 87.5 317.5 C 75.082 317.5 65 307.418 65 295 Z " fill-rule="evenodd" fill="rgb(28,37,55)"/><path d=" M 50 85 C 50 75.06 53.95 65.51 60.98 58.48 C 68.01 51.45 77.56 47.5 87.5 47.5 C 97.44 47.5 106.99 51.45 114.02 58.48 C 121.05 65.51 125 75.06 125 85 C 125 94.94 121.05 104.49 114.02 111.52 C 106.99 118.55 97.44 122.5 87.5 122.5 C 77.56 122.5 68.01 118.55 60.98 111.52 C 53.95 104.49 50 94.94 50 85 L 50 85 L 50 85 Z  M 40 85 C 40 72.41 45.01 60.32 53.91 51.41 C 62.82 42.51 74.91 37.5 87.5 37.5 C 100.09 37.5 112.18 42.51 121.09 51.41 C 129.99 60.32 135 72.41 135 85 C 135 97.59 129.99 109.68 121.09 118.59 C 112.18 127.49 100.09 132.5 87.5 132.5 C 74.91 132.5 62.82 127.49 53.91 118.59 C 45.01 109.68 40 97.59 40 85 L 40 85 L 40 85 Z  M 25 0 L 355 0 C 368.798 0 380 11.202 380 25 L 380 145 C 380 158.798 368.798 170 355 170 L 25 170 C 11.202 170 0 158.798 0 145 L 0 25 C 0 11.202 11.202 0 25 0 L 25 0 Z  M 65 85 C 65 72.582 75.082 62.5 87.5 62.5 C 99.918 62.5 110 72.582 110 85 C 110 97.418 99.918 107.5 87.5 107.5 C 75.082 107.5 65 97.418 65 85 Z " fill-rule="evenodd" fill="rgb(28,37,55)"/></g></g></svg>